<svg width="920" height="640" viewBox="0 0 920 640" fill="none" xmlns="http://www.w3.org/2000/svg">
  <rect width="920" height="640" rx="36" fill="#FFF6DF"/>
  <path d="M0 82H920M0 164H920M0 246H920M0 328H920M0 410H920M0 492H920M0 574H920M92 0V640M184 0V640M276 0V640M368 0V640M460 0V640M552 0V640M644 0V640M736 0V640M828 0V640" stroke="#111111" stroke-opacity="0.12" stroke-width="4"/>
  <rect x="74" y="70" width="772" height="500" rx="28" fill="white" stroke="#111111" stroke-width="8"/>
  <rect x="104" y="110" width="270" height="146" rx="20" fill="#26F0FF" stroke="#111111" stroke-width="7"/>
  <rect x="412" y="110" width="404" height="146" rx="20" fill="#FF4BB8" stroke="#111111" stroke-width="7"/>
  <rect x="104" y="294" width="356" height="236" rx="20" fill="#B8FF3D" stroke="#111111" stroke-width="7"/>
  <rect x="498" y="294" width="318" height="236" rx="20" fill="#8F5CFF" stroke="#111111" stroke-width="7"/>
  <path d="M132 454C170 414 198 436 230 392C263 348 312 388 352 326C374 292 408 318 430 306" stroke="#111111" stroke-width="12" stroke-linecap="round" stroke-linejoin="round"/>
  <circle cx="132" cy="454" r="14" fill="#FF9B39" stroke="#111111" stroke-width="6"/>
  <circle cx="230" cy="392" r="14" fill="#FF4BB8" stroke="#111111" stroke-width="6"/>
  <circle cx="352" cy="326" r="14" fill="#26F0FF" stroke="#111111" stroke-width="6"/>
  <circle cx="430" cy="306" r="14" fill="#B8FF3D" stroke="#111111" stroke-width="6"/>
  <path d="M552 464L586 386L634 438L676 342L746 482" stroke="white" stroke-width="14" stroke-linecap="round" stroke-linejoin="round"/>
  <path d="M158 166H320M158 206H286" stroke="#111111" stroke-width="14" stroke-linecap="round"/>
  <path d="M464 166H764M464 206H698" stroke="#111111" stroke-width="14" stroke-linecap="round"/>
  <rect x="138" y="340" width="58" height="120" rx="12" fill="#26F0FF" stroke="#111111" stroke-width="6"/>
  <rect x="218" y="374" width="58" height="86" rx="12" fill="#FF4BB8" stroke="#111111" stroke-width="6"/>
  <rect x="298" y="314" width="58" height="146" rx="12" fill="#FF9B39" stroke="#111111" stroke-width="6"/>
  <rect x="612" y="154" width="112" height="112" rx="28" fill="#B8FF3D" stroke="#111111" stroke-width="7" transform="rotate(12 612 154)"/>
  <path d="M638 204L660 226L704 174" stroke="#111111" stroke-width="12" stroke-linecap="round" stroke-linejoin="round"/>
</svg>
